<svg xmlns="http://www.w3.org/2000/svg" shape-rendering="geometricPrecision" text-rendering="geometricPrecision" image-rendering="optimizeQuality" fill-rule="evenodd" clip-rule="evenodd" viewBox="0 0 500 512.08"><path fill-rule="nonzero" d="M36.12 176.81c12.3-47.78 39.23-89.89 75.89-120.98 38.73-32.85 88.36-53.5 143.1-55.65 64.98-2.54 124.88 21.51 169.18 62.47 44.29 40.94 72.97 98.77 75.52 163.75.96 24.39-1.8 47.99-7.74 70.24a233.969 233.969 0 0 1-20.7 51.64 56.688 56.688 0 0 0-35.75-24.76c6.15-11.98 11.1-24.73 14.67-38.04 4.89-18.32 7.16-37.61 6.39-57.4-2.08-53.13-25.5-100.39-61.65-133.8-36.15-33.42-85.1-53.05-138.23-50.97-44.67 1.76-85.21 18.63-116.87 45.5-28.94 24.55-50.46 57.45-60.93 94.75l19 3.01c6.16.95 10.39 6.73 9.43 12.88-.41 2.7-1.76 5.02-3.65 6.7l-50.64 45.1c-4.67 4.15-11.83 3.74-15.98-.93-.7-.78-1.26-1.62-1.7-2.51L1.55 190.03c-3.15-5.38-1.34-12.3 4.03-15.46 2.37-1.39 5.04-1.81 7.56-1.39l22.98 3.63zm73.62 287.72V327.57c67.58 0 79.05-3.05 139.96 35.28h47.86c21.66 1.29 33.01 23.26 11.95 37.69-16.77 12.31-38.92 11.61-61.62 9.57-15.66-.78-16.32 20.26 0 20.33 5.68.44 11.83-.89 17.2-.89 28.31-.04 51.65-5.46 65.93-27.83l7.16-16.72 71.19-35.28c35.61-11.72 60.95 25.52 34.69 51.45-51.57 37.51-104.44 68.37-158.52 93.3-39.28 23.89-78.57 23.07-117.82 0l-57.98-29.94zM4.24 314.4h86.95v163.89H4.24V314.4zm252.94 23.2c-14.88-13.47-16.55-36.42-3.54-51.92 13.32-15.88 36.98-17.94 52.86-4.62 15.87 13.32 17.94 36.99 4.62 52.86a38.793 38.793 0 0 1-4.95 4.9c-15.82-3.15-33.39-1.25-48.99-1.22zm-100.22-34.96 40.32-189.65 160.99 36.2-4.55 21.39-115.02-25.86-1.5-.38c-11.16-2.39-22.16 4.74-24.54 15.92l-2.2 10.33-.34-.07L200 219.76l-18.08 85.08c-7.77-1.26-15.85-1.89-24.96-2.2zm40.73 5.78 31.77-149.43 160.98 36.2-32.26 151.79-20.92 10.37c-1.8-2.4-3.86-4.64-6.15-6.69l22.42-109.23c-13.13-2.94-21.41-16.04-18.46-29.11l-63.67-14.26c-2.94 13.13-16.03 21.4-29.1 18.46l-20.8 101.27c-8.55-4.12-16.26-7.14-23.81-9.37z"/></svg>