<svg xmlns="http://www.w3.org/2000/svg" shape-rendering="geometricPrecision" text-rendering="geometricPrecision" image-rendering="optimizeQuality" fill-rule="evenodd" clip-rule="evenodd" viewBox="0 0 512 512"><path fill-rule="nonzero" d="M256 0c70.68 0 134.69 28.66 181.01 74.99C483.34 121.31 512 185.32 512 256c0 70.69-28.66 134.69-74.99 181.01C390.69 483.34 326.69 512 256 512c-70.68 0-134.69-28.66-181.01-74.99C28.66 390.69 0 326.68 0 256c0-70.67 28.66-134.69 74.99-181.01C121.31 28.66 185.32 0 256 0zm34.51 258.15l-5.93 24.74h-41.25c5.33 16.88 16.96 25.31 34.76 25.31 19.56 0 37.87-6.3 54.88-18.91v50.61c-14.14 9.64-31.2 14.46-51.17 14.46-32.31 0-56.22-7.37-71.7-22.11-15.44-14.73-24.89-31.19-28.37-49.36h-24.56l6.44-24.74h15.01c-.18-1.35-.27-3.76-.27-7.19 0-3.61.09-6.21.27-7.83H160.5l6.45-24.75h14.78c11.78-46.54 44.13-69.8 97.01-69.8 17.29 0 34.8 4.63 52.56 13.91l-12.24 49.21c-12.33-11.3-25.21-16.96-38.61-16.96-17.56 0-29.48 7.88-35.64 23.64h49.04l-5.94 24.75h-47.83c-.18 1.81-.28 4.4-.28 7.83v7.19h50.71zM413.08 98.91C372.89 58.72 317.35 33.86 256 33.86c-61.35 0-116.89 24.86-157.09 65.05-40.19 40.2-65.05 95.75-65.05 157.09 0 61.35 24.86 116.89 65.05 157.09 40.2 40.19 95.74 65.05 157.09 65.05 61.35 0 116.89-24.86 157.08-65.05 40.2-40.19 65.06-95.74 65.06-157.09 0-61.35-24.86-116.89-65.06-157.09z"/></svg>